<svg width="12" height="11" viewBox="0 0 12 11" fill="none" xmlns="http://www.w3.org/2000/svg">
<g id="next (2) copy">
<path id="Path" d="M11.8082 4.75962L7.47457 0.201528C7.35087 0.0714174 7.18599 0 7.01019 0C6.83419 0 6.66941 0.07152 6.5457 0.201528L6.15224 0.615462C6.02863 0.745368 5.96054 0.918883 5.96054 1.10389C5.96054 1.2888 6.02863 1.46816 6.15224 1.59807L8.68042 4.26298H0.648287C0.286144 4.26298 0 4.56117 0 4.94217V5.52736C0 5.90835 0.286144 6.23661 0.648287 6.23661H8.7091L6.15234 8.9164C6.02873 9.04651 5.96063 9.21531 5.96063 9.40032C5.96063 9.58512 6.02873 9.75638 6.15234 9.88638L6.5458 10.299C6.66951 10.4291 6.83428 10.5 7.01028 10.5C7.18609 10.5 7.35096 10.4282 7.47467 10.2981L11.8083 5.74007C11.9323 5.60955 12.0005 5.43532 12 5.2501C12.0004 5.06427 11.9323 4.88994 11.8082 4.75962Z" fill="#004B93"/>
</g>
</svg>
