<?xml version="1.0" encoding="UTF-8"?>
<svg width="27px" height="27px" viewBox="0 0 27 27" version="1.1" xmlns="http://www.w3.org/2000/svg" xmlns:xlink="http://www.w3.org/1999/xlink">
    <!-- Generator: sketchtool 64 (101010) - https://sketch.com -->
    <title>D03AC291-9984-438D-B2B8-AD3A7AB12A53</title>
    <desc>Created with sketchtool.</desc>
    <g id="Cel" stroke="none" stroke-width="1" fill="none" fill-rule="evenodd">
        <g id="Menu-desplegado" transform="translate(-93.000000, -510.000000)">
            <g id="Group-9" transform="translate(93.000000, 510.000000)">
                <rect id="Rectangle" fill="#FFFFFF" x="7" y="2" width="18" height="25" rx="5"></rect>
                <g id="facebook_logo-copy" fill="#2A5CAA" fill-rule="nonzero">
                    <path d="M21.3787064,0 C16.1277961,0 10.8768857,0 5.62597537,0 C2.5194993,0 0,2.5190625 0,5.625 C0,10.875 0,16.125 0,21.375 C0,24.4809375 2.5194993,27 5.62597537,27 C8.55148256,27 11.4769898,27 14.4024969,27 C14.4043723,26.94375 14.4081229,26.8875 14.4081229,26.83125 C14.4081229,23.445 14.4081229,20.05875 14.4081229,16.6734375 C14.4081229,16.633125 14.4081229,16.5928125 14.4081229,16.5440625 C14.3518632,16.5440625 14.3068554,16.5440625 14.2627852,16.5440625 C13.182598,16.5440625 12.1024107,16.5440625 11.0222234,16.5440625 C10.8721974,16.5440625 10.8712597,16.5440625 10.8712597,16.3996875 C10.8712597,15.1321875 10.8721974,13.8646875 10.8684468,12.5971875 C10.8684468,12.481875 10.9031403,12.4528125 11.0156598,12.4528125 C12.095847,12.4565625 13.1760343,12.455625 14.2562216,12.455625 C14.3012294,12.455625 14.3452995,12.455625 14.4071853,12.455625 C14.4071853,12.4115625 14.4071853,12.3721875 14.4071853,12.3328125 C14.4090606,11.2790625 14.4006216,10.2253125 14.4156242,9.1715625 C14.4278138,8.3240625 14.5919048,7.50375 14.9613438,6.7340625 C15.463931,5.6896875 16.2515675,4.9434375 17.3233158,4.4990625 C18.03969,4.201875 18.7888824,4.063125 19.5605787,4.074375 C20.4447945,4.0875 21.3290103,4.126875 22.2132261,4.15875 C22.377317,4.164375 22.541408,4.1925 22.7054989,4.2009375 C22.7973899,4.205625 22.8283327,4.239375 22.8273951,4.33125 C22.8245821,4.85625 22.8255197,5.38125 22.8255197,5.90625 C22.8255197,6.525 22.8227068,7.14375 22.8273951,7.7625 C22.8283327,7.8703125 22.7973899,7.903125 22.688621,7.9021875 C22.0172546,7.8975 21.3458882,7.8890625 20.6745218,7.905 C20.3697815,7.9115625 20.0603528,7.9453125 19.7621762,8.0109375 C19.187389,8.1365625 18.8479552,8.51625 18.7335603,9.088125 C18.6876149,9.3178125 18.6613603,9.555 18.659485,9.789375 C18.651046,10.648125 18.6557343,11.506875 18.6557343,12.365625 C18.6557343,12.3909375 18.6585473,12.4171875 18.6613603,12.4565625 C18.7119941,12.4565625 18.7598149,12.4565625 18.8076357,12.4565625 C20.0453502,12.4565625 21.2830648,12.4565625 22.5207794,12.4565625 C22.682995,12.4565625 22.685808,12.4575 22.6651794,12.6103125 C22.5779768,13.2853125 22.4870236,13.9603125 22.3998209,14.6353125 C22.3276209,15.1996875 22.2563586,15.7640625 22.1888469,16.3284375 C22.16353,16.5440625 22.1682183,16.5440625 21.9516182,16.5440625 C20.9014362,16.5440625 19.8512541,16.5440625 18.801072,16.5440625 C18.7570019,16.5440625 18.7129317,16.5440625 18.653859,16.5440625 C18.653859,16.605 18.653859,16.655625 18.653859,16.7071875 C18.653859,20.0559375 18.653859,23.4046875 18.653859,26.7525 C18.653859,26.835 18.6519837,26.9175 18.651046,27 C19.5587034,27 20.4663607,27 21.3740181,27 C24.4814318,27 27,24.4809375 27,21.375 C27,16.125 27,10.875 27,5.625 C27.0046818,2.5190625 24.4861201,0 21.3787064,0 Z" id="Path"></path>
                </g>
            </g>
        </g>
    </g>
</svg>