<svg width="120" height="120" viewBox="0 0 120 120" fill="none" xmlns="http://www.w3.org/2000/svg">
<g filter="url(#filter0_ddd_469_667)">
<mask id="mask0_469_667" style="mask-type:alpha" maskUnits="userSpaceOnUse" x="29" y="29" width="61" height="61">
<path d="M59.2539 89.5217C75.9627 89.5217 89.5078 75.9734 89.5078 59.2608C89.5078 42.5482 75.9627 29 59.2539 29C42.5451 29 29 42.5482 29 59.2608C29 75.9734 42.5451 89.5217 59.2539 89.5217Z" fill="#C4C4C4"/>
</mask>
<g mask="url(#mask0_469_667)">
<path d="M89.5078 29H29V89.5217H89.5078V29Z" fill="#FFE200"/>
</g>
</g>
<g clip-path="url(#clip0_469_667)">
<path d="M60.0919 41C51.2044 41 44 48.2044 44 57.0919C44 60.5471 45.0892 63.748 46.9428 66.3696L44.789 73.0693L52.5453 71.3067C54.7962 72.5039 57.3647 73.1838 60.0919 73.1838C68.9794 73.1838 76.1838 65.9794 76.1838 57.0919C76.1838 48.2044 68.9789 41 60.0919 41Z" stroke="#004B93" stroke-width="3.00885" stroke-miterlimit="10"/>
<path d="M69.641 60.6463C69.5234 60.4592 68.7129 60.0695 68.7129 60.0695C68.3927 59.9109 66.0393 58.7577 65.597 58.5991C65.2183 58.463 64.7895 58.3089 64.4053 58.8812C64.1121 59.314 63.2576 60.3121 62.9789 60.6273C62.7833 60.8495 62.6047 60.922 62.1714 60.7054C62.0988 60.6703 60.0025 59.7738 58.5567 58.495C57.2739 57.3623 56.3853 55.9624 56.0626 55.4126C55.864 55.0774 55.9936 54.9213 56.2382 54.6756C56.3893 54.5281 57.0527 53.7251 57.1058 53.648C57.2113 53.4869 57.4004 53.1002 57.4004 53.1002C57.5921 52.7224 57.4725 52.3932 57.3659 52.1766C57.2894 52.027 56.0826 49.1207 55.9676 48.8471C55.6239 48.026 55.2566 47.983 54.9054 48.0035C54.7348 48.016 53.1373 48.0281 52.6285 48.5804L52.5389 48.6754C52.0396 49.2038 51 50.303 51 52.4298C51 52.9191 51.0785 53.4334 51.2401 54.0037C51.5368 55.0289 52.1167 56.1506 52.8842 57.1767C52.9012 57.1987 54.0694 58.8212 54.6538 59.4941C56.5019 61.6219 58.5892 63.1939 60.6955 64.0169C63.3866 65.0686 64.5353 65.3087 65.1872 65.3087C65.4729 65.3087 66.0733 65.1636 66.2034 65.1511C67.0254 65.0776 68.9796 64.0594 69.3898 62.9157C69.7786 61.8351 69.7856 60.8895 69.641 60.6463Z" fill="#004B93"/>
</g>
<defs>
<filter id="filter0_ddd_469_667" x="0.300503" y="0.300503" width="119.078" height="119.092" filterUnits="userSpaceOnUse" color-interpolation-filters="sRGB">
<feFlood flood-opacity="0" result="BackgroundImageFix"/>
<feColorMatrix in="SourceAlpha" type="matrix" values="0 0 0 0 0 0 0 0 0 0 0 0 0 0 0 0 0 0 127 0" result="hardAlpha"/>
<feOffset dx="0.585703" dy="0.585703"/>
<feGaussianBlur stdDeviation="14.6426"/>
<feColorMatrix type="matrix" values="0 0 0 0 0.603922 0 0 0 0 0.317647 0 0 0 0 0.188235 0 0 0 0.15 0"/>
<feBlend mode="normal" in2="BackgroundImageFix" result="effect1_dropShadow_469_667"/>
<feColorMatrix in="SourceAlpha" type="matrix" values="0 0 0 0 0 0 0 0 0 0 0 0 0 0 0 0 0 0 127 0" result="hardAlpha"/>
<feOffset dx="1.17141" dy="1.17141"/>
<feGaussianBlur stdDeviation="2.92851"/>
<feColorMatrix type="matrix" values="0 0 0 0 0.603922 0 0 0 0 0.317647 0 0 0 0 0.188235 0 0 0 0.1 0"/>
<feBlend mode="normal" in2="effect1_dropShadow_469_667" result="effect2_dropShadow_469_667"/>
<feColorMatrix in="SourceAlpha" type="matrix" values="0 0 0 0 0 0 0 0 0 0 0 0 0 0 0 0 0 0 127 0" result="hardAlpha"/>
<feOffset dx="2.34281" dy="2.34281"/>
<feGaussianBlur stdDeviation="4.39277"/>
<feColorMatrix type="matrix" values="0 0 0 0 0.603922 0 0 0 0 0.317647 0 0 0 0 0.188235 0 0 0 0.05 0"/>
<feBlend mode="normal" in2="effect2_dropShadow_469_667" result="effect3_dropShadow_469_667"/>
<feBlend mode="normal" in="SourceGraphic" in2="effect3_dropShadow_469_667" result="shape"/>
</filter>
<clipPath id="clip0_469_667">
<rect width="51.4006" height="51.4006" fill="white" transform="translate(36 33)"/>
</clipPath>
</defs>
</svg>
