<svg width="137" height="137" viewBox="0 0 137 137" fill="none" xmlns="http://www.w3.org/2000/svg">
<g filter="url(#filter0_ddd_469_580)">
<mask id="mask0_469_580" style="mask-type:alpha" maskUnits="userSpaceOnUse" x="29" y="29" width="78" height="78">
<path d="M67.5914 106.2C88.9048 106.2 106.183 88.9185 106.183 67.6002C106.183 46.2819 88.9048 29 67.5914 29C46.278 29 29 46.2819 29 67.6002C29 88.9185 46.278 106.2 67.5914 106.2Z" fill="#C4C4C4"/>
</mask>
<g mask="url(#mask0_469_580)">
<path d="M106.183 29H29V106.2H106.183V29Z" fill="#6A2C90"/>
</g>
</g>
<path d="M67.6517 47.4404C58.0223 47.4404 50.1738 55.3363 50.1738 65.0238C50.1738 74.7113 58.0223 82.6072 67.6517 82.6072V88.6476L70.6405 86.7206C74.9824 83.9189 82.9002 77.8701 84.7388 68.7023C84.9905 67.5198 85.1295 66.2893 85.1295 65.0238C85.1295 55.3363 77.281 47.4404 67.6517 47.4404ZM67.6517 51.3478C75.1817 51.3478 81.2455 57.4483 81.2455 65.0238C81.2455 66.0088 81.138 66.9685 80.9383 67.9009L80.9345 67.9162L80.9307 67.9276C79.7769 73.6873 75.3644 77.9284 71.5356 80.9244V78.3067L69.3509 78.5814C68.7665 78.6549 68.2031 78.6997 67.6517 78.6997C60.1217 78.6997 54.0578 72.5993 54.0578 65.0238C54.0578 57.4483 60.1217 51.3478 67.6517 51.3478Z" fill="white"/>
<defs>
<filter id="filter0_ddd_469_580" x="0.300503" y="0.300503" width="135.753" height="135.771" filterUnits="userSpaceOnUse" color-interpolation-filters="sRGB">
<feFlood flood-opacity="0" result="BackgroundImageFix"/>
<feColorMatrix in="SourceAlpha" type="matrix" values="0 0 0 0 0 0 0 0 0 0 0 0 0 0 0 0 0 0 127 0" result="hardAlpha"/>
<feOffset dx="0.585703" dy="0.585703"/>
<feGaussianBlur stdDeviation="14.6426"/>
<feColorMatrix type="matrix" values="0 0 0 0 0.603922 0 0 0 0 0.317647 0 0 0 0 0.188235 0 0 0 0.15 0"/>
<feBlend mode="normal" in2="BackgroundImageFix" result="effect1_dropShadow_469_580"/>
<feColorMatrix in="SourceAlpha" type="matrix" values="0 0 0 0 0 0 0 0 0 0 0 0 0 0 0 0 0 0 127 0" result="hardAlpha"/>
<feOffset dx="1.17141" dy="1.17141"/>
<feGaussianBlur stdDeviation="2.92851"/>
<feColorMatrix type="matrix" values="0 0 0 0 0.603922 0 0 0 0 0.317647 0 0 0 0 0.188235 0 0 0 0.1 0"/>
<feBlend mode="normal" in2="effect1_dropShadow_469_580" result="effect2_dropShadow_469_580"/>
<feColorMatrix in="SourceAlpha" type="matrix" values="0 0 0 0 0 0 0 0 0 0 0 0 0 0 0 0 0 0 127 0" result="hardAlpha"/>
<feOffset dx="2.34281" dy="2.34281"/>
<feGaussianBlur stdDeviation="4.39277"/>
<feColorMatrix type="matrix" values="0 0 0 0 0.603922 0 0 0 0 0.317647 0 0 0 0 0.188235 0 0 0 0.05 0"/>
<feBlend mode="normal" in2="effect2_dropShadow_469_580" result="effect3_dropShadow_469_580"/>
<feBlend mode="normal" in="SourceGraphic" in2="effect3_dropShadow_469_580" result="shape"/>
</filter>
</defs>
</svg>
