<svg width="115" height="34" viewBox="0 0 115 34" fill="none" xmlns="http://www.w3.org/2000/svg">
<path d="M17.4329 4.17949C16.843 4.17949 16.2708 4.24701 15.7164 4.3714C15.1975 1.87295 12.9869 0 10.3392 0C7.30408 0 4.84473 2.45936 4.84473 5.49091C4.84473 8.295 6.94513 10.6051 9.65682 10.9392C9.60707 11.2946 9.57864 11.6606 9.57864 12.0302C9.57864 14.223 10.4778 16.1991 11.9243 17.6278L17.074 23.0689C17.1593 23.1684 17.2872 23.2324 17.4329 23.2324C17.5787 23.2324 17.703 23.1684 17.7919 23.0689L22.9416 17.6278H22.9381C24.3845 16.1991 25.2837 14.223 25.2837 12.0302C25.2837 11.6606 25.2553 11.2981 25.2055 10.9392C27.9208 10.6051 30.0212 8.29856 30.0212 5.49091C30.0212 2.45936 27.5582 0 24.5267 0C21.879 0 19.6648 1.8765 19.1495 4.3714C18.5986 4.24701 18.0229 4.17949 17.4329 4.17949Z" fill="#B4D449"/>
<path d="M27.4257 30.2764C27.6887 29.8073 27.5252 29.2138 27.056 28.9508L25.7162 28.1973C25.5634 28.112 25.5278 27.9876 25.5314 27.8775C25.5385 27.7424 25.6558 27.6358 25.7873 27.6429L27.9019 27.817C28.2928 27.8526 28.6838 27.6607 28.8935 27.2982C29.1707 26.8042 28.9965 26.1751 28.5025 25.8979C28.3746 25.8268 28.2324 25.7842 28.0974 25.7735L18.4732 24.9845C18.3843 24.9739 18.2955 25.0165 18.2528 25.1018C18.2066 25.1835 18.2173 25.2831 18.2706 25.3541L23.9179 33.1871C23.9996 33.2973 24.1098 33.3968 24.2342 33.4679C24.7282 33.7486 25.3572 33.5745 25.638 33.0805C25.8406 32.7144 25.805 32.2809 25.5705 31.9645L24.3266 30.2444C24.2519 30.1342 24.2804 29.9814 24.3941 29.9068C24.483 29.8428 24.6109 29.8108 24.7602 29.8961L26.1 30.6567C26.5691 30.9161 27.1627 30.7526 27.4257 30.2835" fill="#B4D449"/>
<path d="M7.43516 30.2764C7.69816 30.7455 8.29167 30.909 8.76435 30.6495L10.1042 29.889C10.2535 29.8037 10.3814 29.8357 10.4703 29.8997C10.5875 29.9743 10.6124 30.1271 10.5378 30.2373L9.2939 31.9574C9.06289 32.2773 9.02024 32.7109 9.22637 33.0734C9.50713 33.5638 10.1362 33.7415 10.6266 33.4607C10.7546 33.3897 10.8612 33.2902 10.9465 33.18L16.5902 25.347C16.6435 25.2795 16.6542 25.1764 16.608 25.0947C16.5654 25.0094 16.4729 24.9703 16.3841 24.9774L6.7599 25.7664C6.6213 25.777 6.48625 25.8232 6.35475 25.8908C5.86075 26.168 5.6866 26.797 5.96381 27.291C6.16994 27.6535 6.56088 27.8454 6.95182 27.8099L9.07 27.6358C9.20149 27.6287 9.31877 27.7353 9.32588 27.8703C9.32588 27.9769 9.29034 28.1013 9.13752 28.1902L7.80122 28.9436C7.3321 29.2102 7.16861 29.8037 7.43161 30.2693" fill="#B4D449"/>
<path d="M28.1011 5.49084C28.1011 7.46685 26.4982 9.0697 24.5222 9.0697C22.5462 9.0697 20.9434 7.47041 20.9434 5.49084C20.9434 3.51127 22.5427 1.91553 24.5222 1.91553C26.5018 1.91553 28.1011 3.51837 28.1011 5.49084Z" fill="white"/>
<path d="M26.6763 5.49098C26.6763 6.68157 25.7132 7.64114 24.5261 7.64114C23.3391 7.64114 22.376 6.68157 22.376 5.49098C22.376 4.3004 23.3391 3.34082 24.5261 3.34082C25.7132 3.34082 26.6763 4.30395 26.6763 5.49098Z" fill="#E94835"/>
<path d="M25.9375 4.79443C25.9375 5.18892 25.6176 5.50878 25.2231 5.50878C24.8286 5.50878 24.5088 5.18892 24.5088 4.79443C24.5088 4.39994 24.8286 4.08008 25.2231 4.08008C25.6176 4.08008 25.9375 4.39994 25.9375 4.79443Z" fill="white"/>
<path d="M13.9139 5.49084C13.9139 7.46685 12.3146 9.0697 10.3351 9.0697C8.3555 9.0697 6.75977 7.47041 6.75977 5.49084C6.75977 3.51127 8.35906 1.91553 10.3351 1.91553C12.3111 1.91553 13.9139 3.51837 13.9139 5.49084Z" fill="white"/>
<path d="M12.4888 5.49098C12.4888 6.68157 11.5257 7.64114 10.3386 7.64114C9.15161 7.64114 8.18848 6.68157 8.18848 5.49098C8.18848 4.3004 9.15161 3.34082 10.3386 3.34082C11.5257 3.34082 12.4888 4.30395 12.4888 5.49098Z" fill="#E94835"/>
<path d="M11.7529 4.79443C11.7529 5.18892 11.4331 5.50878 11.0386 5.50878C10.6441 5.50878 10.3242 5.18892 10.3242 4.79443C10.3242 4.39994 10.6441 4.08008 11.0386 4.08008C11.4331 4.08008 11.7529 4.39994 11.7529 4.79443Z" fill="white"/>
<path d="M18.2711 24.0678C18.2355 23.9577 18.264 23.8439 18.3386 23.7729C18.6336 23.5063 18.9037 23.2113 19.1844 22.9412C20.5207 21.6511 21.7362 20.3006 23.0938 19.0354C24.6078 17.6245 26.0969 15.8333 28.0481 14.9803C28.9686 14.5751 32.7678 13.4805 34.4239 17.6387C36.0765 21.7968 32.5688 23.6129 31.6198 23.9541C29.6154 24.672 27.3089 24.3948 25.2369 24.4126C23.3817 24.4268 21.5656 24.2846 19.714 24.2598C19.3159 24.2562 18.9179 24.2242 18.5234 24.2384C18.4203 24.2349 18.3173 24.1709 18.2711 24.0678Z" fill="#B4D449"/>
<path d="M16.5937 24.0678C16.6292 23.9577 16.6008 23.8439 16.5226 23.7729C16.2312 23.5063 15.9611 23.2113 15.6732 22.9412C14.3404 21.6511 13.1214 20.3006 11.7638 19.0354C10.2463 17.6245 8.76069 15.8333 6.8131 14.9803C5.88907 14.5751 2.09341 13.4805 0.437252 17.6387C-1.2189 21.7968 2.29599 23.6129 3.24135 23.9541C5.24935 24.672 7.55233 24.3948 9.62786 24.4126C11.4795 24.4268 13.2956 24.2846 15.1472 24.2598C15.5452 24.2562 15.9433 24.2242 16.3378 24.2384C16.4408 24.2349 16.5439 24.1709 16.5937 24.0678Z" fill="#B4D449"/>
<path d="M63.5161 6.93001C62.4748 6.93001 61.6289 6.08061 61.6289 5.03574C61.6289 3.99087 62.4748 3.14502 63.5161 3.14502C64.5574 3.14502 65.3997 3.99087 65.3997 5.03574C65.3997 6.08061 64.5538 6.93001 63.5161 6.93001Z" fill="#00B4AD"/>
<path d="M69.8944 6.93001C68.8566 6.93001 68.0107 6.08061 68.0107 5.03574C68.0107 3.99087 68.8566 3.14502 69.8944 3.14502C70.9321 3.14502 71.778 3.99087 71.778 5.03574C71.778 6.08061 70.9321 6.93001 69.8944 6.93001Z" fill="#00B4AD"/>
<path d="M81.5839 27.4687H79.9668V2.64414C79.9668 1.34338 81.0046 0.284291 82.2804 0.284291L83.9508 0.255859V25.084C83.9508 26.3812 82.8562 27.4687 81.5803 27.4687H81.5839Z" fill="#00B4AD"/>
<path d="M112.358 27.2019H110.744V11.7314C110.744 10.452 111.782 9.41064 113.058 9.41064H114.682V24.874C114.682 26.157 113.641 27.2019 112.361 27.2019H112.358Z" fill="#00B4AD"/>
<path d="M98.4086 27.5684C96.0559 27.5684 93.8702 26.7403 92.2282 25.237C92.1323 26.4595 91.1194 27.4156 89.8897 27.4156H88.2549V2.6976C88.2549 1.39684 89.3069 0.341309 90.6005 0.341309H92.2353V11.5683C93.8737 10.065 96.0594 9.24049 98.4086 9.24049C103.59 9.24049 107.496 13.1783 107.496 18.3991C107.496 23.6199 103.59 27.5648 98.4086 27.5648V27.5684ZM98.4086 12.8051C95.2456 12.8051 92.7649 15.2645 92.7649 18.4027C92.7649 21.5408 95.242 24.0073 98.4086 24.0073C101.575 24.0073 103.647 21.7043 103.647 18.4027C103.647 15.101 101.493 12.8051 98.4086 12.8051Z" fill="#00B4AD"/>
<path d="M114.679 7.9291H114.334C112.152 7.9291 110.741 6.66743 110.741 4.71274V2.07568H111.086C113.268 2.07568 114.679 3.33735 114.679 5.29204V7.92554V7.9291Z" fill="#00B4AD"/>
<path d="M52.8181 27.2554C52.3454 27.2554 51.894 27.1062 51.5102 26.8254L43.567 21.0857V24.6468C43.567 26.072 42.412 27.2306 40.994 27.2306H39.4551V2.85021C39.4551 1.35399 40.4928 0.27002 41.8647 0.27002H43.567V15.3851L50.8243 9.62766C51.6843 8.9453 52.9425 9.09101 53.6248 9.95108L55.1104 11.8844L47.2099 18.2212L54.1295 23.2181C54.6057 23.5628 54.9114 24.0355 55.0144 24.6184C55.0144 24.6361 55.0215 24.6717 55.0215 24.6752C55.1139 25.2652 54.9682 25.8516 54.6235 26.3278C54.2077 26.9071 53.5324 27.2554 52.8216 27.2554H52.8181Z" fill="#00B4AD"/>
<path d="M66.8986 9.28271C61.7026 9.28271 57.7861 13.2312 57.7861 18.4698C57.7861 23.7083 61.7026 27.6604 66.8986 27.6604C72.0945 27.6604 76.0074 23.7083 76.0074 18.4698C76.0074 13.2312 72.0909 9.28271 66.8986 9.28271ZM66.9057 24.0886C63.8883 24.0886 61.6102 21.6719 61.6102 18.4698C61.6102 15.2676 63.8883 12.8545 66.9057 12.8545C69.923 12.8545 72.1975 15.2676 72.1975 18.4698C72.1975 21.6719 69.923 24.0886 66.9057 24.0886Z" fill="#00B4AD"/>
</svg>
