<svg width="192" height="192" viewBox="0 0 192 192" fill="none" xmlns="http://www.w3.org/2000/svg">
<g clip-path="url(#clip0_575_732)">
<g filter="url(#filter0_ddd_575_732)">
<mask id="mask0_575_732" style="mask-type:alpha" maskUnits="userSpaceOnUse" x="6" y="5" width="181" height="181">
<ellipse cx="96.5001" cy="95.4986" rx="90.149" ry="90.149" fill="#C4C4C4"/>
</mask>
<g mask="url(#mask0_575_732)">
<rect x="6.35107" y="5.34961" width="180.298" height="180.298" fill="#00A7A7"/>
</g>
</g>
<g clip-path="url(#clip1_575_732)">
<path d="M94.135 59.8573C91.9372 59.8572 89.7463 60.0964 87.6021 60.5708C86.821 56.8628 85.0161 53.4384 82.3858 50.6738C79.7555 47.9093 76.4015 45.9117 72.6924 44.9004C68.9834 43.8892 65.0627 43.9034 61.3613 44.9417C57.66 45.9799 54.3211 48.002 51.7117 50.7856C49.1022 53.5692 47.3232 57.0067 46.57 60.7203C45.8169 64.4339 46.1188 68.2799 47.4425 71.8357C48.7663 75.3915 51.0606 78.5195 54.0735 80.8759C57.0864 83.2323 60.7012 84.726 64.5207 85.1928C64.3204 86.548 64.2186 87.9155 64.216 89.285C64.2115 93.1912 64.9987 97.0591 66.5317 100.662C68.0646 104.266 70.3125 107.532 73.1439 110.271L92.7638 130.677C92.9331 130.872 93.1434 131.029 93.3801 131.136C93.6168 131.243 93.8743 131.299 94.135 131.299C94.3956 131.299 94.6531 131.243 94.8898 131.136C95.1265 131.029 95.3368 130.872 95.5061 130.677L115.132 110.271H115.117C117.952 107.534 120.202 104.268 121.737 100.665C123.272 97.0611 124.059 93.1922 124.054 89.285C124.048 87.9157 123.946 86.5483 123.749 85.1928C127.564 84.7229 131.174 83.2277 134.182 80.8714C137.19 78.5151 139.481 75.3889 140.801 71.836C142.122 68.2831 142.422 64.4408 141.668 60.7311C140.915 57.0214 139.137 53.5878 136.53 50.8071C133.923 48.0264 130.587 46.0063 126.89 44.9685C123.192 43.9307 119.276 43.9154 115.57 44.9242C111.864 45.9331 108.513 47.927 105.883 50.6872C103.254 53.4474 101.448 56.8671 100.665 60.5708C98.5216 60.0963 96.3317 59.857 94.135 59.8573Z" fill="#C9D300"/>
<path d="M134.804 64.7622C134.805 67.4153 134.007 70.0091 132.51 72.2156C131.012 74.4221 128.884 76.1421 126.393 77.1582C123.902 78.1743 121.161 78.4408 118.516 77.924C115.871 77.4071 113.441 76.1301 111.534 74.2546C109.627 72.379 108.328 69.9891 107.802 67.3871C107.275 64.7851 107.545 62.088 108.576 59.6368C109.608 57.1856 111.355 55.0904 113.597 53.6163C115.839 52.1423 118.475 51.3555 121.172 51.3555C122.962 51.3551 124.734 51.7015 126.388 52.3751C128.041 53.0486 129.544 54.036 130.81 55.281C132.076 56.5259 133.08 58.004 133.766 59.6308C134.451 61.2576 134.804 63.0012 134.804 64.7622Z" fill="white"/>
<path d="M129.363 64.7763C129.364 66.3723 128.884 67.9327 127.983 69.2603C127.083 70.5878 125.803 71.6227 124.304 72.2342C122.806 72.8456 121.157 73.0061 119.566 72.6952C117.975 72.3844 116.513 71.6162 115.366 70.4879C114.219 69.3596 113.438 67.9218 113.121 66.3565C112.804 64.7912 112.967 63.1687 113.588 61.6943C114.209 60.2199 115.26 58.9598 116.609 58.0734C117.958 57.187 119.544 56.7143 121.166 56.7148C123.339 56.7148 125.424 57.5641 126.961 59.0758C128.498 60.5875 129.362 62.638 129.363 64.7763Z" fill="#E52C2D"/>
<path d="M126.552 62.1665C126.552 62.6964 126.393 63.2145 126.093 63.6552C125.794 64.0959 125.369 64.4394 124.871 64.6423C124.374 64.8453 123.826 64.8985 123.298 64.7953C122.77 64.6922 122.284 64.4372 121.903 64.0627C121.522 63.6882 121.262 63.2109 121.157 62.6912C121.052 62.1715 121.105 61.6327 121.311 61.1429C121.516 60.6531 121.865 60.2343 122.313 59.9395C122.76 59.6446 123.287 59.4869 123.825 59.4863C124.547 59.4903 125.238 59.7738 125.748 60.2755C126.259 60.7772 126.548 61.4566 126.552 62.1665Z" fill="white"/>
<path d="M80.7285 64.7622C80.7304 67.4164 79.932 70.0114 78.4344 72.219C76.9368 74.4266 74.8073 76.1475 72.3153 77.164C69.8234 78.1805 67.081 78.447 64.4351 77.9296C61.7892 77.4123 59.3588 76.1343 57.4513 74.2576C55.5438 72.3808 54.2449 69.9895 53.7191 67.3863C53.1932 64.7831 53.464 62.0849 54.4972 59.6331C55.5304 57.1813 57.2795 55.0861 59.5233 53.6127C61.767 52.1392 64.4046 51.3537 67.1022 51.3555C70.7156 51.3571 74.1806 52.7701 76.7357 55.284C79.2908 57.7979 80.7269 61.207 80.7285 64.7622Z" fill="white"/>
<path d="M75.304 64.7763C75.3052 66.3725 74.8251 67.9332 73.9244 69.2609C73.0238 70.5885 71.743 71.6235 70.2443 72.2348C68.7456 72.846 67.0963 73.0061 65.5051 72.6948C63.9139 72.3834 62.4523 71.6147 61.3053 70.4857C60.1583 69.3568 59.3775 67.9185 59.0617 66.3528C58.7458 64.7872 58.9092 63.1645 59.531 61.6902C60.1528 60.2158 61.2052 58.9561 62.555 58.0705C63.9047 57.1849 65.4912 56.7131 67.1135 56.7148C69.2858 56.7164 71.3686 57.5664 72.9043 59.0779C74.4401 60.5895 75.3032 62.639 75.304 64.7763Z" fill="#E52C2D"/>
<path d="M72.4989 62.1665C72.4995 62.6973 72.3401 63.2163 72.0408 63.658C71.7415 64.0996 71.3158 64.444 70.8175 64.6475C70.3192 64.8511 69.7708 64.9046 69.2416 64.8014C68.7124 64.6982 68.2262 64.4429 67.8445 64.0678C67.4628 63.6927 67.2028 63.2146 67.0973 62.694C66.9918 62.1735 67.0457 61.6338 67.252 61.1434C67.4583 60.6529 67.8078 60.2337 68.2564 59.9387C68.7049 59.6438 69.2323 59.4863 69.7718 59.4863C70.4933 59.4903 71.1842 59.7738 71.6946 60.2755C72.2051 60.7772 72.4941 61.4566 72.4989 62.1665Z" fill="white"/>
<path d="M97.3342 134.41C97.2698 134.218 97.2601 134.012 97.3063 133.815C97.3525 133.618 97.4528 133.437 97.5963 133.292C98.7267 132.312 99.7475 131.209 100.835 130.183C105.899 125.339 110.561 120.266 115.726 115.536C121.516 110.244 127.168 103.544 134.618 100.342C138.131 98.816 152.595 94.7059 158.912 110.307C165.228 125.908 151.824 132.705 148.223 133.97C140.584 136.668 131.769 135.634 123.889 135.691C116.82 135.748 109.897 135.22 102.843 135.121C101.32 135.103 99.8206 135.004 98.3123 135.046C98.1067 135.039 97.9071 134.976 97.7359 134.864C97.5648 134.752 97.4288 134.595 97.3433 134.41" fill="#C9D300"/>
<path d="M90.9382 134.41C91.0041 134.218 91.0144 134.012 90.9681 133.815C90.9219 133.617 90.8208 133.437 90.6762 133.292C89.5549 132.312 88.5432 131.209 87.4372 130.183C82.3669 125.339 77.7232 120.266 72.5493 115.536C66.7599 110.244 61.1046 103.544 53.679 100.342C50.1627 98.816 35.6801 94.7059 29.3697 110.307C23.0592 125.908 36.4601 132.705 40.0617 133.97C47.7037 136.668 56.4975 135.634 64.3924 135.691C71.4615 135.748 78.3814 135.22 85.4383 135.121C86.9436 135.103 88.4579 135.004 89.9693 135.046C90.175 135.04 90.3747 134.977 90.5459 134.864C90.7172 134.752 90.8531 134.595 90.9382 134.41Z" fill="#C9D300"/>
<path d="M52.6409 138.208C52.6409 138.208 70.8652 138.262 89.3456 137.494C89.3456 137.494 91.643 138.394 89.955 141.427C89.955 141.427 88.1999 144.761 80.9327 145.292L52.6531 145.655C52.6531 145.655 49.3805 144.587 49.7431 141.484C49.7431 141.484 49.6852 139.815 52.6531 138.208" fill="#C9D300"/>
<path d="M135.953 138.737C135.953 138.737 117.726 138.791 99.2518 138.023C99.2518 138.023 96.9513 138.923 98.6424 141.954C98.6424 141.954 100.398 145.287 107.665 145.821L135.947 146.184C135.947 146.184 139.22 145.111 138.854 142.011C138.854 142.011 138.912 140.347 135.947 138.737" fill="#C9D300"/>
</g>
</g>
<defs>
<filter id="filter0_ddd_575_732" x="-22.3484" y="-23.3498" width="238.868" height="238.869" filterUnits="userSpaceOnUse" color-interpolation-filters="sRGB">
<feFlood flood-opacity="0" result="BackgroundImageFix"/>
<feColorMatrix in="SourceAlpha" type="matrix" values="0 0 0 0 0 0 0 0 0 0 0 0 0 0 0 0 0 0 127 0" result="hardAlpha"/>
<feOffset dx="0.585703" dy="0.585703"/>
<feGaussianBlur stdDeviation="14.6426"/>
<feColorMatrix type="matrix" values="0 0 0 0 0.603922 0 0 0 0 0.317647 0 0 0 0 0.188235 0 0 0 0.15 0"/>
<feBlend mode="normal" in2="BackgroundImageFix" result="effect1_dropShadow_575_732"/>
<feColorMatrix in="SourceAlpha" type="matrix" values="0 0 0 0 0 0 0 0 0 0 0 0 0 0 0 0 0 0 127 0" result="hardAlpha"/>
<feOffset dx="1.17141" dy="1.17141"/>
<feGaussianBlur stdDeviation="2.92851"/>
<feColorMatrix type="matrix" values="0 0 0 0 0.603922 0 0 0 0 0.317647 0 0 0 0 0.188235 0 0 0 0.1 0"/>
<feBlend mode="normal" in2="effect1_dropShadow_575_732" result="effect2_dropShadow_575_732"/>
<feColorMatrix in="SourceAlpha" type="matrix" values="0 0 0 0 0 0 0 0 0 0 0 0 0 0 0 0 0 0 127 0" result="hardAlpha"/>
<feOffset dx="2.34281" dy="2.34281"/>
<feGaussianBlur stdDeviation="4.39277"/>
<feColorMatrix type="matrix" values="0 0 0 0 0.603922 0 0 0 0 0.317647 0 0 0 0 0.188235 0 0 0 0.05 0"/>
<feBlend mode="normal" in2="effect2_dropShadow_575_732" result="effect3_dropShadow_575_732"/>
<feBlend mode="normal" in="SourceGraphic" in2="effect3_dropShadow_575_732" result="shape"/>
</filter>
<clipPath id="clip0_575_732">
<rect width="192" height="192" fill="white"/>
</clipPath>
<clipPath id="clip1_575_732">
<rect width="132.851" height="102.011" fill="white" transform="translate(27.7019 44.1855)"/>
</clipPath>
</defs>
</svg>
