<?xml version="1.0" encoding="UTF-8"?>
<svg width="27px" height="27px" viewBox="0 0 27 27" version="1.1" xmlns="http://www.w3.org/2000/svg" xmlns:xlink="http://www.w3.org/1999/xlink">
    <!-- Generator: sketchtool 64 (101010) - https://sketch.com -->
    <title>05026C83-1497-4AAF-A500-5E94F2CB6275</title>
    <desc>Created with sketchtool.</desc>
    <g id="Cel" stroke="none" stroke-width="1" fill="none" fill-rule="evenodd">
        <g id="Menu-desplegado" transform="translate(-36.000000, -510.000000)">
            <g id="Group-10" transform="translate(36.000000, 510.000000)">
                <rect id="Rectangle-Copy-2" fill="#FFFFFF" x="1" y="0" width="24" height="27" rx="5"></rect>
                <g id="iconmonstr-twitter-3-copy" fill="#28AAE1" fill-rule="nonzero">
                    <path d="M21.375,0 L5.625,0 C2.518875,0 0,2.518875 0,5.625 L0,21.375 C0,24.481125 2.518875,27 5.625,27 L21.375,27 C24.48225,27 27,24.481125 27,21.375 L27,5.625 C27,2.518875 24.48225,0 21.375,0 Z M21.218625,10.391625 C21.45375,15.58575 17.580375,21.37725 10.722375,21.37725 C8.636625,21.37725 6.696,20.766375 5.061375,19.717875 C7.021125,19.9485 8.976375,19.405125 10.528875,18.189 C8.91225,18.158625 7.54875,17.091 7.079625,15.624 C7.659,15.73425 8.22825,15.701625 8.746875,15.561 C6.9705,15.204375 5.745375,13.604625 5.78475,11.8935 C6.282,12.17025 6.852375,12.33675 7.4565,12.355875 C5.812875,11.25675 5.347125,9.0855 6.3135,7.425 C8.134875,9.65925 10.85625,11.129625 13.92525,11.28375 C13.386375,8.974125 15.14025,6.75 17.524125,6.75 C18.585,6.75 19.54575,7.19775 20.2185,7.916625 C21.06,7.75125 21.850875,7.444125 22.56525,7.021125 C22.2885,7.884 21.7035,8.607375 20.941875,9.064125 C21.688875,8.974125 22.401,8.776125 23.0625,8.4825 C22.568625,9.2205 21.942,9.87075 21.218625,10.391625 Z" id="Shape"></path>
                </g>
            </g>
        </g>
    </g>
</svg>