<svg id="Capa_1" data-name="Capa 1" xmlns="http://www.w3.org/2000/svg" viewBox="0 0 185 184"><defs><style>.cls-1{fill:#373736;}</style></defs><path class="cls-1" d="M112.74,139.65v-7.74a.5.5,0,0,1,.09-.29v0a22.06,22.06,0,0,0,3.83-12.45V94.39a6,6,0,0,0-6.06-6,6.18,6.18,0,0,0-3.73,1.3,6,6,0,0,0-9.41-3,6,6,0,0,0-9.36-3.5V71.63a6,6,0,0,0-6.06-6A6.09,6.09,0,0,0,76,71.69l.4,37.16-1.67-5.23,0-.09a6,6,0,0,0-7.85-3.32,6,6,0,0,0-3.33,3.24,5.78,5.78,0,0,0,.22,4.6h0L67.78,119v0a38.23,38.23,0,0,0,7.79,12.49,15.45,15.45,0,0,1,4.1,8.58A1.77,1.77,0,0,0,81,141.55a1.63,1.63,0,0,0,.45.06l29.52-.15a1.81,1.81,0,0,0,1.78-1.81ZM82.13,139a18,18,0,0,0-4.68-9.31,35.89,35.89,0,0,1-7.25-11.64l-4.06-10.93,0-.06a3,3,0,0,1,1.66-4.43,3.51,3.51,0,0,1,2.68,0,3.43,3.43,0,0,1,1.82,1.83l2.86,9a2,2,0,0,0,2.2,1.35,2,2,0,0,0,1.67-2l-.44-41.12a3.5,3.5,0,0,1,3.48-3.46,3.45,3.45,0,0,1,3.48,3.43s0,12.86,0,12.9v18.73a1.91,1.91,0,0,0,1.93,1.92,1.94,1.94,0,0,0,1.92-1.94V85.43a3.59,3.59,0,0,1,2.2-.79A3.43,3.43,0,0,1,95,87.8s0,0,0,0v15.35A1.93,1.93,0,0,0,97,105.1a2,2,0,0,0,1.92-1.95V88.83a3.48,3.48,0,0,1,2.21-.79,3.44,3.44,0,0,1,3.45,3v12a1.89,1.89,0,0,0,.58,1.37,1.93,1.93,0,0,0,3.27-1.39V91.79a3.46,3.46,0,0,1,5.69,2.62v24.76a19.32,19.32,0,0,1-3.37,11v0a3.08,3.08,0,0,0-.55,1.76v6.93Z"/><path class="cls-1" d="M51.62,49.14l1.79,5.51H59.2a.45.45,0,0,1,.27.82l-4.69,3.41,1.79,5.51a.45.45,0,0,1-.69.5l-4.69-3.4-4.69,3.4a.45.45,0,0,1-.69-.5l1.79-5.51-4.69-3.41a.45.45,0,0,1,.26-.82H49l1.79-5.51A.45.45,0,0,1,51.62,49.14Z"/><path class="cls-1" d="M71.76,49.14l1.79,5.51h5.79a.45.45,0,0,1,.27.82l-4.69,3.41,1.79,5.51a.45.45,0,0,1-.69.5l-4.69-3.4-4.69,3.4a.45.45,0,0,1-.69-.5l1.79-5.51-4.69-3.41a.45.45,0,0,1,.26-.82h5.8l1.79-5.51A.45.45,0,0,1,71.76,49.14Z"/><path class="cls-1" d="M91.9,49.14l1.79,5.51h5.79a.45.45,0,0,1,.27.82l-4.69,3.41,1.79,5.51a.45.45,0,0,1-.69.5l-4.69-3.4-4.69,3.4a.45.45,0,0,1-.69-.5l1.79-5.51-4.69-3.41a.45.45,0,0,1,.26-.82h5.8L91,49.14A.45.45,0,0,1,91.9,49.14Z"/><path class="cls-1" d="M112,49.14l1.79,5.51h5.79a.45.45,0,0,1,.27.82l-4.69,3.41L117,64.39a.45.45,0,0,1-.69.5l-4.69-3.4-4.69,3.4a.45.45,0,0,1-.69-.5L108,58.88l-4.69-3.41a.45.45,0,0,1,.26-.82h5.8l1.79-5.51A.45.45,0,0,1,112,49.14Z"/><path class="cls-1" d="M132.18,49.14,134,54.65h5.79a.45.45,0,0,1,.27.82l-4.69,3.41,1.79,5.51a.45.45,0,0,1-.69.5l-4.69-3.4-4.69,3.4a.45.45,0,0,1-.69-.5l1.79-5.51-4.69-3.41a.45.45,0,0,1,.26-.82h5.8l1.79-5.51A.45.45,0,0,1,132.18,49.14Z"/><path class="cls-1" d="M131.75,46.53h0a.45.45,0,0,1-.45-.45V42.47a.45.45,0,0,1,.45-.45h0a.45.45,0,0,1,.45.45v3.61A.45.45,0,0,1,131.75,46.53Z"/><path class="cls-1" d="M126.16,48.84h0a.45.45,0,0,1-.64,0L123,46.3a.46.46,0,0,1,0-.65h0a.47.47,0,0,1,.64,0l2.54,2.55A.45.45,0,0,1,126.16,48.84Z"/><path class="cls-1" d="M137.33,48.84h0a.47.47,0,0,1,0-.64l2.55-2.55a.47.47,0,0,1,.64,0h0a.46.46,0,0,1,0,.65L138,48.84A.46.46,0,0,1,137.33,48.84Z"/></svg>